<svg width="23" height="21" viewBox="0 0 23 21" fill="none" xmlns="http://www.w3.org/2000/svg">
<path d="M12.7206 2.40588L12.7203 2.40612L11.8739 3.35768L11.5003 3.77764L11.1267 3.35768L10.2802 2.40612L10.2797 2.40551C8.28247 0.152951 5.09737 -0.169283 2.9764 1.80238C0.482212 4.12487 0.344816 8.32394 2.58455 10.8499L10.8987 20.2152C10.8987 20.2152 10.8988 20.2153 10.8988 20.2153C11.237 20.5959 11.7593 20.5959 12.0975 20.2153C12.0975 20.2153 12.0975 20.2152 12.0976 20.2152L20.4119 10.8497L20.412 10.8496C22.6556 8.32372 22.5183 4.12498 20.0243 1.8025L12.7206 2.40588ZM12.7206 2.40588C14.7223 0.152696 17.9032 -0.169085 20.024 1.80223L12.7206 2.40588Z" stroke="#101010"/>
</svg>
